<?xml version="1.0" encoding="UTF-8"?>
<svg id="Layer_1" xmlns="http://www.w3.org/2000/svg" version="1.1" viewBox="0 0 73.01 55.68">
  <!-- Generator: Adobe Illustrator 29.1.0, SVG Export Plug-In . SVG Version: 2.1.0 Build 142)  -->
  <defs>
    <style>
      .st0 {
        fill: #231f20;
      }
    </style>
  </defs>
  <path class="st0" d="M19.83,43.94c-2.09-.04-5.87-.9-5.87-5.18,0-2.59.22-4.64.22-6.91,0-1.94-.72-3.56-4.28-3.82v-1.22c3.56-.22,4.28-1.48,4.28-3.78s-.22-3.74-.22-6.05c0-4.28,3.64-5.26,5.87-5.36l.04,1.04c-2.81.5-3.31,2.09-3.31,3.89,0,2.3.25,3.64.25,5.87,0,2.59-1.84,4.46-4.07,4.93v.14c2.12.5,4.07,2.12,4.07,4.97,0,2.34-.25,4.25-.25,6.44,0,1.94.61,3.49,3.31,4l-.04,1.04Z"/>
  <path class="st0" d="M42.4,37.5v-1.01c2.12-.22,2.38-.36,2.38-2.88v-6.01c0-2.56-.86-4.18-3.1-4.18-1.37,0-2.63.76-4,1.87.04.43.11.86.11,1.55v6.98c0,2.27.32,2.45,2.3,2.66v1.01h-7.7v-1.01c2.23-.22,2.56-.36,2.56-2.74v-6.19c0-2.66-.83-4.14-3.02-4.14-1.44,0-2.84.97-3.96,1.87v8.46c0,2.38.25,2.52,2.3,2.74v1.01h-7.74v-1.01c2.38-.22,2.59-.36,2.59-2.74v-7.45c0-2.3-.14-2.45-2.16-2.81v-.9c1.69-.25,3.38-.72,5-1.44v2.92c.76-.58,1.51-1.19,2.66-1.87.9-.58,1.69-.94,2.84-.94,1.73,0,3.2,1.08,3.92,2.95,1.01-.79,1.94-1.4,2.84-2.02.79-.5,1.8-.94,2.84-.94,2.81,0,4.54,2.02,4.54,5.54v6.95c0,2.41.22,2.52,2.27,2.74v1.01h-7.49Z"/>
  <path class="st0" d="M52.48,11.62c2.12,0,5.9.9,5.9,5.15,0,2.63-.25,4.07-.25,6.34,0,1.91.76,3.6,4.32,3.78v1.22c-3.53.25-4.32,1.51-4.32,3.82s.25,4.32.25,6.62c0,4.28-3.71,5.36-5.9,5.4v-1.04c2.77-.5,3.31-2.05,3.31-3.92,0-2.3-.29-4.21-.29-6.44,0-2.63,1.87-4.46,4.07-4.97v-.14c-2.12-.47-4.07-2.34-4.07-4.93,0-2.09.29-3.67.29-5.87,0-1.94-.61-3.46-3.31-3.96v-1.04Z"/>
</svg>