<?xml version="1.0" encoding="UTF-8"?>
<svg id="Layer_1" xmlns="http://www.w3.org/2000/svg" version="1.1" viewBox="0 0 214.77 71.59">
  <!-- Generator: Adobe Illustrator 29.1.0, SVG Export Plug-In . SVG Version: 2.1.0 Build 142)  -->
  <defs>
    <style>
      .st0 {
        fill: #231f20;
      }
    </style>
  </defs>
  <path class="st0" d="M27.21,51.33c-2.09-.04-5.87-.9-5.87-5.18,0-2.59.22-4.64.22-6.91,0-1.94-.72-3.56-4.28-3.82v-1.22c3.56-.22,4.28-1.48,4.28-3.78s-.22-3.74-.22-6.05c0-4.28,3.64-5.26,5.87-5.36l.04,1.04c-2.81.5-3.31,2.09-3.31,3.89,0,2.3.25,3.64.25,5.87,0,2.59-1.84,4.46-4.07,4.93v.14c2.12.5,4.07,2.12,4.07,4.97,0,2.34-.25,4.25-.25,6.44,0,1.94.61,3.49,3.31,4l-.04,1.04Z"/>
  <path class="st0" d="M58.17,44.89v-1.01c2.12-.22,2.38-.36,2.38-2.88v-6.01c0-2.56-.86-4.18-3.1-4.18-1.37,0-2.63.76-4,1.87.04.43.11.86.11,1.55v6.98c0,2.27.32,2.45,2.3,2.66v1.01h-7.7v-1.01c2.23-.22,2.56-.36,2.56-2.74v-6.19c0-2.66-.83-4.14-3.02-4.14-1.44,0-2.84.97-3.96,1.87v8.46c0,2.38.25,2.52,2.3,2.74v1.01h-7.74v-1.01c2.38-.22,2.59-.36,2.59-2.74v-7.45c0-2.3-.14-2.45-2.16-2.81v-.9c1.69-.25,3.38-.72,5-1.44v2.92c.76-.58,1.51-1.19,2.66-1.87.9-.58,1.69-.94,2.84-.94,1.73,0,3.2,1.08,3.92,2.95,1.01-.79,1.94-1.4,2.84-2.02.79-.5,1.8-.94,2.84-.94,2.81,0,4.54,2.02,4.54,5.54v6.95c0,2.41.22,2.52,2.27,2.74v1.01h-7.49Z"/>
  <path class="st0" d="M75.85,28.65c4.5,0,7.85,3.42,7.85,8.06,0,5.83-4.32,8.6-7.85,8.6-4.97,0-7.99-4-7.99-8.03,0-5.87,4.57-8.64,7.99-8.64ZM75.42,29.88c-2.2,0-4.18,2.12-4.18,6.3,0,4.57,2.02,7.88,4.97,7.88,2.23,0,4.1-1.62,4.1-6.55,0-4.21-1.73-7.63-4.9-7.63Z"/>
  <path class="st0" d="M100,41.65c-1.58,2.09-4,3.67-6.15,3.67-4.57,0-7.27-3.71-7.27-7.56,0-2.84,1.22-5.22,3.64-7.06,1.91-1.48,4.07-2.05,5.47-2.05,1.62,0,2.81.5,3.35.97.5.4.58.65.58,1.04,0,.86-.9,1.62-1.3,1.62-.18,0-.32-.07-.68-.36-1.12-1.01-2.34-1.51-3.64-1.51-2.38,0-4.46,2.02-4.46,5.76-.04,5,3.38,6.66,5.47,6.66,1.51,0,2.74-.4,4.39-1.98l.61.79Z"/>
  <path class="st0" d="M119.3,44.89c-1.94,0-4.07.04-4.82.07-.22-.25-5.87-6.95-6.08-7.16-.5-.58-.72-.76-1.04-.76-.14,0-.43,0-.65.07v4c0,2.41.18,2.56,2.52,2.77v1.01h-7.96v-1.01c2.41-.22,2.59-.47,2.59-2.77v-17.21c0-2.34-.25-2.41-2.48-2.74v-.94c1.87-.18,4.03-.72,5.33-1.22v17.17c1.08-.25,1.76-.68,2.3-1.26.83-.83,2.16-2.45,2.77-3.35.76-1.04.47-1.33-1.26-1.48v-1.01l7.42-.32v.97c-2.52.4-3.24.68-4.79,2.3-.68.72-2.3,2.56-3.06,3.49.72,1.01,4.39,5.18,5.58,6.44,1.73,1.73,2.23,1.84,3.64,1.91v1.01Z"/>
  <path class="st0" d="M129.34,44.89v-1.01c2.09-.22,2.38-.4,2.38-2.77v-5.9c0-2.99-1.15-4.5-3.56-4.46-1.37,0-2.81.68-3.82,1.87v8.5c0,2.34.29,2.56,2.45,2.77v1.01h-7.85v-1.01c2.09-.18,2.56-.36,2.56-2.77v-17.35c0-1.91-.11-2.38-2.52-2.59v-.94c1.91-.18,4.07-.72,5.36-1.22v12.27c1.3-1.3,3.28-2.63,5.22-2.63,2.95,0,5,1.84,5,6.16v6.33c0,2.38.29,2.56,2.38,2.74v1.01h-7.6Z"/>
  <path class="st0" d="M145.79,44.85c-.61.32-1.19.47-1.55.47-2.3,0-3.53-1.4-3.53-4.28v-10.47h-2.48l-.14-.43.97-1.04h1.66v-3.02c.68-.72,1.73-1.66,2.41-2.38l.54.07c-.07,1.51-.11,3.6-.11,5.33h4.1c.32.36.22,1.15-.22,1.48h-3.89v9.21c0,2.92,1.15,3.46,2.09,3.46.86,0,1.69-.32,2.2-.58l.32.94-2.38,1.26Z"/>
  <path class="st0" d="M156.34,44.85c-.61.32-1.19.47-1.55.47-2.3,0-3.53-1.4-3.53-4.28v-10.47h-2.48l-.14-.43.97-1.04h1.66v-3.02c.68-.72,1.73-1.66,2.41-2.38l.54.07c-.07,1.51-.11,3.6-.11,5.33h4.1c.32.36.22,1.15-.22,1.48h-3.89v9.21c0,2.92,1.15,3.46,2.09,3.46.86,0,1.69-.32,2.2-.58l.32.94-2.38,1.26Z"/>
  <path class="st0" d="M159.62,29.84c1.69-.25,3.56-.86,5.22-1.55v2.88c.11-.07,2.99-1.73,3.13-1.8.86-.47,1.62-.72,2.09-.72,3.96,0,6.37,3.31,6.37,6.88,0,5.47-4.32,8.93-9.04,9.79-1.08-.04-2.05-.36-2.56-.65v4.86c0,2.66.29,2.88,3.06,3.13v1.01h-8.53v-1.01c2.34-.25,2.63-.43,2.63-2.84v-16.38c0-2.16-.07-2.3-2.38-2.63v-.97ZM164.84,42.15c.83.83,2.23,1.4,3.42,1.4,3.13,0,5.15-2.63,5.15-6.66s-2.27-6.08-4.82-6.08c-1.26,0-2.77.83-3.74,1.55v9.79Z"/>
  <path class="st0" d="M187.91,19.01c2.12,0,5.9.9,5.9,5.15,0,2.63-.25,4.07-.25,6.33,0,1.91.76,3.6,4.32,3.78v1.22c-3.53.25-4.32,1.51-4.32,3.82s.25,4.32.25,6.62c0,4.28-3.71,5.36-5.9,5.4v-1.04c2.77-.5,3.31-2.05,3.31-3.92,0-2.3-.29-4.21-.29-6.44,0-2.63,1.87-4.46,4.07-4.97v-.14c-2.12-.47-4.07-2.34-4.07-4.93,0-2.09.29-3.67.29-5.87,0-1.94-.61-3.46-3.31-3.96v-1.04Z"/>
</svg>